<svg width="261" height="48" viewBox="0 0 261 48" fill="none" xmlns="http://www.w3.org/2000/svg">
<path d="M65.1094 6.70312C66.9141 6.70312 68.0859 7.75781 68.0859 9.35156C68.0859 10.9453 66.9141 12 65.1094 12H61.4766V3.09375H67.4531V3.98438H62.4375V6.70312H65.1094ZM65.0156 11.1328C66.3516 11.1328 67.1016 10.5 67.1016 9.35156C67.1016 8.20312 66.3516 7.57031 65.0156 7.57031H62.4375V11.1328H65.0156Z" fill="white"/>
<path d="M75.4425 4.96875V12H74.505V5.8125H71.0362V8.78906C71.0362 11.2734 70.5675 12.0469 69.3487 12.0469C69.1612 12.0469 68.9972 12.0234 68.9034 12V11.1328H69.2316C69.8878 11.1328 70.1222 10.8281 70.1222 8.64844V4.96875H75.4425Z" fill="white"/>
<path d="M83.1975 11.1797H83.4553V12C83.4319 12.0234 83.2444 12.0469 83.1272 12.0469C82.2834 12.0469 81.9553 11.7188 81.9084 10.8516C81.4163 11.6016 80.4319 12.1172 79.3303 12.1172C77.9709 12.1172 77.0803 11.3203 77.0803 10.125C77.0803 8.4375 78.6741 8.10938 80.0334 7.875C81.135 7.66406 81.8147 7.54688 81.8147 6.89062C81.8147 6.16406 81.135 5.67188 80.1272 5.67188C79.2366 5.67188 78.4397 6.04688 77.8538 6.72656L77.2209 6.11719C77.9709 5.29688 78.9788 4.85156 80.1506 4.85156C81.7444 4.85156 82.7288 5.69531 82.7288 7.125V10.6875C82.7288 11.0391 82.8694 11.1797 83.1975 11.1797ZM79.4006 11.2969C80.7366 11.2969 81.8381 10.4062 81.8381 9.28125V8.08594C81.4866 8.36719 80.9241 8.48438 80.1506 8.60156C79.0959 8.78906 78.0178 9 78.0178 10.1016C78.0178 10.875 78.5334 11.2969 79.4006 11.2969Z" fill="white"/>
<path d="M89.8744 4.96875V5.83594H86.0306V12H85.0931V4.96875H89.8744Z" fill="white"/>
<path d="M93.5981 12.1172C91.5122 12.1172 90.1528 10.6641 90.1528 8.48438C90.1528 6.35156 91.5591 4.85156 93.5981 4.85156C95.6841 4.85156 97.0434 6.30469 97.0434 8.48438C97.0434 10.6172 95.6372 12.1172 93.5981 12.1172ZM93.5981 11.2969C95.0981 11.2969 96.0825 10.1719 96.0825 8.48438C96.0825 6.77344 95.0981 5.67188 93.5981 5.67188C92.0981 5.67188 91.1138 6.79688 91.1138 8.48438C91.1138 10.1953 92.0981 11.2969 93.5981 11.2969Z" fill="white"/>
<path d="M105.197 11.1562V13.6406H104.306V12H98.7516V13.6406H97.8609V11.1562H98.5875C98.8219 10.5 98.9156 9.30469 98.9156 7.89844V4.96875H104.33V11.1562H105.197ZM99.525 11.1562H103.392V5.8125H99.8297V7.96875C99.8297 9.32812 99.7359 10.4297 99.525 11.1562Z" fill="white"/>
<path d="M106.882 3.82031V2.74219H107.96V3.82031H106.882ZM106.975 12V4.96875H107.913V12H106.975Z" fill="white"/>
<path d="M113.348 4.24219C112.246 4.24219 111.519 3.65625 111.426 2.67188L112.199 2.53125C112.269 3.16406 112.668 3.53906 113.348 3.53906C114.027 3.53906 114.426 3.16406 114.496 2.53125L115.269 2.67188C115.176 3.65625 114.449 4.24219 113.348 4.24219ZM115.34 4.96875H116.324V12H115.41V6.25781L111.355 12H110.371V4.96875H111.285V10.7109L115.34 4.96875Z" fill="white"/>
<path d="M123.704 4.96875H124.642V12H123.704V8.83594H119.626V12H118.688V4.96875H119.626V7.99219H123.704V4.96875Z" fill="white"/>
<path d="M131.975 4.96875H132.959V12H132.045V6.25781L127.99 12H127.006V4.96875H127.92V10.7109L131.975 4.96875Z" fill="white"/>
<path d="M138.3 4.24219C137.198 4.24219 136.472 3.65625 136.378 2.67188L137.152 2.53125C137.222 3.16406 137.62 3.53906 138.3 3.53906C138.98 3.53906 139.378 3.16406 139.448 2.53125L140.222 2.67188C140.128 3.65625 139.402 4.24219 138.3 4.24219ZM140.292 4.96875H141.277V12H140.363V6.25781L136.308 12H135.323V4.96875H136.238V10.7109L140.292 4.96875Z" fill="white"/>
<path d="M154.607 4.875C156.271 4.875 157.396 6.32812 157.396 8.48438C157.396 10.6172 156.224 12.0938 154.607 12.0938C153.716 12.0938 152.99 11.6953 152.521 10.9688V14.3438H151.583V10.8984C151.115 11.6719 150.388 12.0938 149.497 12.0938C147.833 12.0938 146.708 10.6406 146.708 8.48438C146.708 6.35156 147.857 4.875 149.497 4.875C150.388 4.875 151.115 5.27344 151.583 6.04688V2.625H152.521V6.04688C152.99 5.29688 153.716 4.875 154.607 4.875ZM149.638 11.2969C150.833 11.2969 151.63 10.1719 151.63 8.48438C151.63 6.79688 150.833 5.67188 149.638 5.67188C148.466 5.67188 147.669 6.79688 147.669 8.48438C147.669 10.1719 148.466 11.2969 149.638 11.2969ZM154.466 11.2969C155.638 11.2969 156.435 10.1719 156.435 8.48438C156.435 6.79688 155.638 5.67188 154.466 5.67188C153.247 5.67188 152.474 6.79688 152.474 8.48438C152.474 10.1719 153.247 11.2969 154.466 11.2969Z" fill="white"/>
<path d="M162.057 12.1172C159.971 12.1172 158.612 10.6641 158.612 8.48438C158.612 6.35156 160.018 4.85156 162.057 4.85156C164.143 4.85156 165.503 6.30469 165.503 8.48438C165.503 10.6172 164.096 12.1172 162.057 12.1172ZM162.057 11.2969C163.557 11.2969 164.542 10.1719 164.542 8.48438C164.542 6.77344 163.557 5.67188 162.057 5.67188C160.557 5.67188 159.573 6.79688 159.573 8.48438C159.573 10.1953 160.557 11.2969 162.057 11.2969Z" fill="white"/>
<path d="M172.32 4.96875H173.258V12H172.32V8.83594H168.242V12H167.304V4.96875H168.242V7.99219H172.32V4.96875Z" fill="white"/>
<path d="M182.161 11.1562V13.6406H181.27V12H175.716V13.6406H174.825V11.1562H175.552C175.786 10.5 175.88 9.30469 175.88 7.89844V4.96875H181.294V11.1562H182.161ZM176.489 11.1562H180.356V5.8125H176.794V7.96875C176.794 9.32812 176.7 10.4297 176.489 11.1562Z" fill="white"/>
<path d="M67.7969 42.2344C62.875 42.2344 59.5469 38.5312 59.5469 33.0938C59.5469 27.75 62.9688 23.9531 67.7969 23.9531C71.4531 23.9531 73.9844 25.875 75.0625 29.25L73.2344 29.9062C72.3906 27.0938 70.5156 25.6875 67.7969 25.6875C64.0938 25.6875 61.5625 28.6406 61.5625 33.0938C61.5625 37.5938 64.0469 40.5 67.7969 40.5C70.5156 40.5 72.4375 39.0938 73.2344 36.2812L75.0625 36.9375C73.9844 40.2656 71.4531 42.2344 67.7969 42.2344Z" fill="white"/>
<path d="M78.8069 35.625C79.0413 38.6719 80.9631 40.5469 83.9631 40.5469C86.0725 40.5469 87.6194 39.7031 88.51 38.4844L89.8694 39.6562C88.7913 40.9688 86.7756 42.2344 84.01 42.2344C79.4631 42.2344 76.885 39.1406 76.885 34.9688C76.885 30.7031 79.7444 27.7031 83.6819 27.7031C87.6663 27.7031 90.2444 30.5625 90.2444 34.9688C90.2444 35.2031 90.2444 35.3906 90.1975 35.625H78.8069ZM83.6819 29.3438C81.01 29.3438 79.135 31.2188 78.8069 34.0781H88.3225C88.0413 31.125 86.3069 29.3438 83.6819 29.3438Z" fill="white"/>
<path d="M100.504 27.7031C104.254 27.7031 106.833 30.6562 106.833 34.9688C106.833 39.2344 104.208 42.2344 100.504 42.2344C98.395 42.2344 96.7075 41.3438 95.5825 39.7969V46.6875H93.7075V27.9375H95.2544L95.4419 30.4219C96.5669 28.7344 98.3481 27.7031 100.504 27.7031ZM100.176 40.5938C102.989 40.5938 104.911 38.3438 104.911 34.9688C104.911 31.5938 102.989 29.3438 100.176 29.3438C97.27 29.3438 95.395 31.5938 95.395 34.9688C95.395 38.3438 97.27 40.5938 100.176 40.5938Z" fill="white"/>
<path d="M119.952 27.9375V29.6719H112.264V42H110.389V27.9375H119.952Z" fill="white"/>
<path d="M122.618 25.6406V23.4844H124.774V25.6406H122.618ZM122.806 42V27.9375H124.681V42H122.806Z" fill="white"/>
<path d="M140.097 27.9375V42H138.222V36.4219H131.472V39.7031C131.472 41.1562 130.628 42 129.316 42H128.378V40.3125H128.894C129.316 40.3125 129.597 40.0312 129.597 39.5625V35.3438H131.566C130.113 34.7344 129.175 33.5625 129.175 31.9688C129.175 29.5312 131.003 27.9375 133.863 27.9375H140.097ZM134.003 29.5312C132.175 29.5312 131.097 30.4688 131.097 32.1094C131.097 33.75 132.409 34.8281 134.378 34.8281H138.222V29.5312H134.003Z" fill="white"/>
<path d="M166.758 24.1875V42H164.836V26.0156H154.429V42H152.508V24.1875H166.758Z" fill="white"/>
<path d="M178.752 27.7031C182.502 27.7031 185.08 30.6562 185.08 34.9688C185.08 39.2344 182.455 42.2344 178.752 42.2344C176.643 42.2344 174.955 41.3438 173.83 39.7969V46.6875H171.955V27.9375H173.502L173.689 30.4219C174.814 28.7344 176.596 27.7031 178.752 27.7031ZM178.424 40.5938C181.236 40.5938 183.158 38.3438 183.158 34.9688C183.158 31.5938 181.236 29.3438 178.424 29.3438C175.518 29.3438 173.643 31.5938 173.643 34.9688C173.643 38.3438 175.518 40.5938 178.424 40.5938Z" fill="white"/>
<path d="M198.574 27.9375H200.543V42H198.715V30.5156L190.606 42H188.637V27.9375H190.465V39.4219L198.574 27.9375Z" fill="white"/>
<path d="M215.491 27.9375V29.625H210.241V42H208.366V29.625H203.116V27.9375H215.491Z" fill="white"/>
<path d="M227.907 27.9375H229.923L225.094 42.0938C223.923 45.5156 222.563 46.9219 220.501 46.9219C218.532 46.9219 217.173 45.5156 217.173 43.4531C217.173 42.1406 217.688 41.1094 218.579 40.3125H220.501L215.626 27.9375H217.688L222.376 40.3125H223.829L227.907 27.9375ZM223.032 42.375L223.173 42H219.423C219.048 42.4219 218.86 42.8906 218.86 43.4062C218.86 44.5312 219.563 45.2812 220.548 45.2812C221.579 45.2812 222.423 44.4375 223.032 42.375Z" fill="white"/>
<path d="M243.604 27.9375V42H241.729V29.625H234.792V35.5781C234.792 40.5469 233.854 42.0938 231.417 42.0938C231.042 42.0938 230.714 42.0469 230.526 42V40.2656H231.182C232.495 40.2656 232.964 39.6562 232.964 35.2969V27.9375H243.604Z" fill="white"/>
<path d="M258.224 27.9375H260.193V42H258.364V30.5156L250.255 42H248.286V27.9375H250.114V39.4219L258.224 27.9375Z" fill="white"/>
<path d="M16.5853 2V35.2143H23.4146V8L33.1707 7.96002V18H40V2H16.5853Z" fill="white"/>
<path d="M33.1705 42.0001L26.7858 42L40.0001 41.9999V17.7144L33.1705 17.7144V42.0001Z" fill="white"/>
<path d="M23.4147 18V25H40V29.8572L40 18L23.4147 18Z" fill="white"/>
<path d="M6.82927 34.9999V25H16.5854V18H0V41.9999L33.1705 42.0001L33.1707 30.2144V34.9999H6.82927Z" fill="white"/>
</svg>
