<svg width="14" height="14" viewBox="0 0 14 14" fill="none" xmlns="http://www.w3.org/2000/svg">
<path d="M6.36719 0.102633C6.77772 -0.0342111 7.22228 -0.0342111 7.63281 0.102633L12.6328 1.76963C13.4501 2.04217 14 2.80806 14 3.66806V8.4122L13.9961 8.5372C13.9596 9.11602 13.673 9.65141 13.2109 10.003L13.1094 10.0763L8.10938 13.4093C7.4377 13.8569 6.5623 13.8569 5.89062 13.4093L5.19727 12.9474H3C1.89515 12.9474 1.00048 12.051 1 10.9474V10.1476L0.894531 10.0782L0.890625 10.0763C0.334099 9.70525 0.000311671 9.08009 0 8.4122V3.66806C0 2.80806 0.549905 2.04217 1.36719 1.76963L6.36719 0.102633ZM7.31641 1.05185C7.11114 0.98343 6.88886 0.98343 6.68359 1.05185L1.68359 2.71884C1.27539 2.85503 1 3.23772 1 3.66806V8.4122C1.0003 8.74621 1.16737 9.05894 1.44531 9.24424L1.55469 9.3165C1.8327 9.50194 1.99992 9.81435 2 10.1485V10.9474C2.00048 11.4992 2.44801 11.9474 3 11.9474H5.19727C5.39468 11.9474 5.5877 12.0058 5.75195 12.1153L6.44531 12.5772C6.78109 12.8009 7.21891 12.8009 7.55469 12.5772L12.5547 9.24424C12.8326 9.05894 12.9997 8.74621 13 8.4122V3.66806C13 3.23772 12.7246 2.85503 12.3164 2.71884L7.31641 1.05185Z" fill="white"/>
<path fill-rule="evenodd" clip-rule="evenodd" d="M7.31641 2.10503C7.11121 2.03666 6.88879 2.03666 6.68359 2.10503L2.68359 3.43804C2.2753 3.57417 2 3.95685 2 4.38726V7.87554C2 8.20991 2.16709 8.52308 2.44531 8.70854L6.44531 11.3746C6.78119 11.5984 7.21881 11.5984 7.55469 11.3746L11.5547 8.70854C11.8329 8.52308 12 8.20991 12 7.87554V4.38726C12 3.95685 11.7247 3.57417 11.3164 3.43804L7.31641 2.10503Z" fill="white"/>
<path fill-rule="evenodd" clip-rule="evenodd" d="M6.68359 1.05132C6.88886 0.982894 7.11114 0.982894 7.31641 1.05132L12.3164 2.71831C12.7247 2.85446 13 3.23714 13 3.66753V8.41167C12.9998 8.74584 12.8328 9.05832 12.5547 9.2437L7.55469 12.5767C7.21882 12.8006 6.78118 12.8006 6.44531 12.5767L5.75195 12.1148C5.5877 12.0053 5.39468 11.9468 5.19727 11.9468H3C2.44786 11.9468 2.00024 11.4989 2 10.9468V10.148C1.99992 9.81373 1.83282 9.50139 1.55469 9.31596L1.44531 9.2437C1.16724 9.05832 1.00016 8.74584 1 8.41167V3.66753C1 3.23714 1.27532 2.85446 1.68359 2.71831L6.68359 1.05132ZM6.68359 2.10503C6.88879 2.03665 7.11121 2.03665 7.31641 2.10503L11.3164 3.43804C11.7247 3.57417 12 3.95685 12 4.38725V7.87554C12 8.2099 11.8329 8.52308 11.5547 8.70854L7.55469 11.3746C7.21881 11.5984 6.78119 11.5984 6.44531 11.3746L2.44531 8.70854C2.16709 8.52308 2 8.2099 2 7.87554V4.38725C2 3.95685 2.2753 3.57417 2.68359 3.43804L6.68359 2.10503Z" fill="#0A0A0A"/>
<path d="M7 4.00044C8.10457 4.00044 9 4.89587 9 6.00044C8.99984 6.74001 8.59698 7.38401 8 7.72993V8.50044C7.99976 9.05252 7.55214 9.50044 7 9.50044C6.44786 9.50044 6.00024 9.05252 6 8.50044V7.72993C5.40302 7.38401 5.00016 6.74001 5 6.00044C5 4.89587 5.89543 4.00044 7 4.00044Z" fill="#0A0A0A"/>
</svg>
